<svg width="18" height="10" viewBox="0 0 18 10" fill="none" xmlns="http://www.w3.org/2000/svg">
<g clip-path="url(#clip0)">
<path d="M7.9714 9.59017L0.419026 2.37705C0.149146 2.11471 -0.00210198 1.76145 -0.00210196 1.39344C-0.00210194 1.02544 0.149146 0.672177 0.419026 0.409838C0.554442 0.27959 0.715448 0.176227 0.892786 0.105695C1.07012 0.0351626 1.26029 -0.00114767 1.45236 -0.00114766C1.64442 -0.00114766 1.83459 0.0351626 2.01193 0.105695C2.18927 0.176227 2.35027 0.27959 2.48569 0.409838L10.0285 7.62295C10.1645 7.75167 10.2723 7.90487 10.346 8.0737C10.4196 8.24253 10.4575 8.42364 10.4575 8.60656C10.4575 8.78948 10.4196 8.97059 10.346 9.13942C10.2723 9.30825 10.1645 9.46145 10.0285 9.59017C9.89395 9.72014 9.73374 9.82331 9.5572 9.89372C9.38065 9.96413 9.19126 10.0004 8.99998 10.0004C8.80869 10.0004 8.6193 9.96413 8.44276 9.89372C8.26621 9.82331 8.10601 9.72014 7.9714 9.59017Z" fill="white"/>
<path d="M7.97127 7.62291L15.5141 0.409798C15.6487 0.279826 15.8089 0.176653 15.9855 0.106242C16.162 0.0358315 16.3514 -0.000421596 16.5427 -0.000421588C16.734 -0.000421579 16.9234 0.0358315 17.0999 0.106243C17.2765 0.176653 17.4367 0.279826 17.5713 0.409798C17.7072 0.538515 17.8151 0.691715 17.8887 0.860544C17.9623 1.02937 18.0002 1.21048 18.0002 1.3934C18.0002 1.57633 17.9623 1.75744 17.8887 1.92626C17.8151 2.09509 17.7072 2.24829 17.5713 2.37701L10.0284 9.59012C9.89381 9.7201 9.73361 9.82327 9.55706 9.89368C9.38052 9.96409 9.19113 10.0003 8.99984 10.0003C8.80856 10.0003 8.61917 9.96409 8.44262 9.89368C8.26608 9.82327 8.10587 9.7201 7.97127 9.59012C7.83536 9.46141 7.72747 9.30821 7.65384 9.13938C7.58021 8.97055 7.5423 8.78944 7.5423 8.60652C7.5423 8.42359 7.58021 8.24249 7.65384 8.07366C7.72747 7.90483 7.83536 7.75163 7.97127 7.62291Z" fill="white"/>
</g>
<defs>
<clipPath id="clip0">
<rect width="10" height="18" fill="white" transform="translate(18) rotate(90)"/>
</clipPath>
</defs>
</svg>
