<svg width="170" height="138" viewBox="0 0 170 138" fill="none" xmlns="http://www.w3.org/2000/svg">
<path d="M35.9168 99.5133V106.251H24.9474V102.715C23.9654 101.156 21.4999 99.5133 17.8957 99.5133C14.4586 99.5133 11.92 101.156 11.0216 102.652V106.272C11.8364 107.747 14.0512 108.647 16.8301 109.222L21.3432 110.205C30.4321 112.088 34.6109 115.374 35.969 117.529V129.424C34.2557 131.966 29.0949 137.95 17.9479 137.95C6.97859 137.95 1.65062 131.882 0.0940229 129.424V122.362H11.0216V126.222C11.8207 127.276 12.8646 128.118 14.0625 128.676C15.2604 129.234 16.5763 129.491 17.8957 129.424C21.4999 129.424 23.9654 127.781 24.9474 126.222V122.121C24.1221 120.646 22.0745 119.736 19.212 119.171L14.6258 118.125C5.44288 116.326 1.27453 112.957 0 110.802V99.4401C1.68197 96.9711 6.92636 91.0183 17.9793 91.0183C29.0322 91.0183 34.287 97.1385 35.9168 99.5133Z" fill="white"/>
<path d="M83.3566 127.98H86.7518V136.674H72.2932V132.866C70.7785 134.482 68.9329 135.752 66.8828 136.588C64.8327 137.424 62.6264 137.807 60.415 137.71C57.2155 137.798 54.0681 136.885 51.411 135.098C48.7539 133.311 46.7194 130.739 45.5907 127.739V100.832H42.07V92.2214H57.3853V125.114C58.1425 126.23 59.1732 127.132 60.3787 127.735C61.5842 128.338 62.9241 128.62 64.2699 128.555C65.5978 128.612 66.9231 128.394 68.1632 127.915C69.4033 127.436 70.5318 126.707 71.4783 125.773V100.832H67.9472V92.2214H83.3566V127.98Z" fill="white"/>
<path d="M121.227 91.9703V102.631C120.182 102.547 119.587 102.547 119.252 102.547C113.36 102.547 109.673 104.357 107.949 106.157V127.98H111.96V136.674H92.5813V127.98H96.1541V100.832H92.5813V92.2214H107.082V98.2056C109.296 94.8369 112.901 91.9285 119.451 91.9285C120.043 91.9059 120.636 91.9199 121.227 91.9703Z" fill="white"/>
<path d="M169.064 100.832H166.358L154.72 136.674H140.387L128.759 100.832H125.97V92.2214H143.73V100.832H141.076L147.961 125.522H148.285L155.253 100.832H152.672V92.2214H169.064V100.832Z" fill="white"/>
<path d="M61.0104 48.5954L72.6379 57.2892L84.2654 41.6069L96.3213 58.0006L108.231 49.3068L96.3213 33.0595L115.126 27.0753L110.811 13.5377L92.0171 19.6683V0H77.3809V19.6683L58.5658 12.9727L53.9796 26.5104L73.0663 33.0595L61.0104 48.5954Z" fill="white"/>
</svg>
