<svg width="133" height="208" viewBox="0 0 133 208" fill="none" xmlns="http://www.w3.org/2000/svg">
<path d="M83.2335 102.721L89.9083 107.702L96.5916 98.7243L103.519 108.115L110.363 103.133L103.519 93.8272L114.324 90.3942L111.846 82.6446L101.042 86.1534V74.8867H92.639V86.1534L81.826 82.3165L79.1881 90.0744L90.1612 93.8272L83.2335 102.721Z" fill="#0052D4"/>
<path d="M20.9601 47.9443L24.2132 50.3676L27.458 46.0007L30.8207 50.5696L34.1497 48.1463L30.8207 43.6194L36.0797 41.9534L34.8745 38.1838L29.6239 39.8919V34.4142H25.5364V39.8919L20.2774 38.024L18.9964 41.7935L24.3312 43.6194L20.9601 47.9443Z" fill="#0052D4"/>
<path d="M122.044 155.663H74.005C71.0992 155.663 68.3125 154.511 66.2578 152.46C64.2031 150.408 63.0488 147.626 63.0488 144.725V43.754C63.0488 40.853 64.2031 38.0707 66.2578 36.0194C68.3125 33.968 71.0992 32.8155 74.005 32.8155H122.044C124.95 32.8155 127.736 33.968 129.791 36.0194C131.846 38.0707 133 40.853 133 43.754V144.725C133 147.626 131.846 150.408 129.791 152.46C127.736 154.511 124.95 155.663 122.044 155.663ZM74.005 34.4984C71.5463 34.4984 69.1882 35.4735 67.4496 37.2093C65.7111 38.9451 64.7343 41.2993 64.7343 43.754V144.725C64.7343 147.18 65.7111 149.534 67.4496 151.27C69.1882 153.005 71.5463 153.981 74.005 153.981H122.044C124.502 153.981 126.861 153.005 128.599 151.27C130.338 149.534 131.314 147.18 131.314 144.725V43.754C131.314 41.2993 130.338 38.9451 128.599 37.2093C126.861 35.4735 124.502 34.4984 122.044 34.4984H74.005Z" fill="white"/>
<path d="M42.2067 85.8252H11.563C8.49769 85.8208 5.55918 84.6031 3.39165 82.4391C1.22413 80.2751 0.00445868 77.3413 0 74.2809L0 11.5443C0.00445868 8.48396 1.22413 5.55019 3.39165 3.38617C5.55918 1.22216 8.49769 0.00445147 11.563 0L42.2067 0C45.2735 0.00222517 48.2142 1.21895 50.3835 3.38321C52.5529 5.54747 53.7737 8.4825 53.7782 11.5443V74.2809C53.7737 77.3427 52.5529 80.2778 50.3835 82.442C48.2142 84.6063 45.2735 85.823 42.2067 85.8252ZM11.563 1.68285C8.94473 1.6873 6.43495 2.7277 4.58353 4.57613C2.73212 6.42455 1.69003 8.93027 1.68557 11.5443V74.2809C1.69003 76.895 2.73212 79.4007 4.58353 81.2491C6.43495 83.0975 8.94473 84.1379 11.563 84.1424H42.2067C44.8265 84.1402 47.3384 83.1008 49.1916 81.2521C51.0449 79.4034 52.0881 76.8964 52.0926 74.2809V11.5443C52.0881 8.92882 51.0449 6.42182 49.1916 4.57316C47.3384 2.72449 44.8265 1.68507 42.2067 1.68285H11.563Z" fill="white"/>
<path d="M69.7911 101.812H24.2807C18.6952 101.812 14.1672 106.333 14.1672 111.909V197.903C14.1672 203.479 18.6952 208 24.2807 208H69.7911C75.3766 208 79.9045 203.479 79.9045 197.903V111.909C79.9045 106.333 75.3766 101.812 69.7911 101.812Z" fill="white"/>
<path d="M31.7899 170.245L39.2654 175.824L46.7493 165.769L54.5029 176.278L62.1723 170.708L54.5029 160.283L66.6053 156.446L63.8326 147.762L51.7386 151.692V139.079H42.3163V151.692L30.2138 147.401L27.2641 156.084L39.5435 160.283L31.7899 170.245Z" fill="#0052D4"/>
</svg>
