<svg width="143" height="42" viewBox="0 0 143 42" fill="none" xmlns="http://www.w3.org/2000/svg">
<path d="M42.0542 20.995C42.0642 16.8644 40.8546 12.8225 38.5766 9.37481C36.2985 5.92717 33.0532 3.22684 29.2466 1.61158C25.44 -0.00368361 21.2409 -0.462176 17.1748 0.293449C13.1086 1.04907 9.35572 2.98527 6.38559 5.85987C3.41545 8.73446 1.35989 12.4199 0.476005 16.4551C-0.407882 20.4903 -0.0808581 24.6962 1.41617 28.5468C2.91321 32.3974 5.51379 35.7217 8.89266 38.1039C12.2715 40.4861 16.2787 41.8205 20.4129 41.9402V27.7074H17.1572V21.9425H20.4129V18.1325C20.4129 15.4396 21.6912 11.2306 27.3237 11.2306H32.397V16.8758H28.7119C28.5075 16.865 28.3033 16.8995 28.1138 16.9768C27.9243 17.0541 27.7543 17.1723 27.6159 17.3229C27.4775 17.4735 27.3742 17.6528 27.3133 17.8479C27.2525 18.0431 27.2356 18.2492 27.2638 18.4517V21.9425H32.377L31.7778 27.7573H27.2638V41.0525C31.5483 39.7211 35.2945 37.0566 37.9553 33.4482C40.6162 29.8398 42.0523 25.4764 42.0542 20.995Z" fill="#3B5998"/>
<path d="M31.7778 27.7074L32.377 21.8927H27.2638V18.4716C27.2355 18.2692 27.2524 18.063 27.3133 17.8679C27.3742 17.6727 27.4775 17.4934 27.6159 17.3428C27.7543 17.1922 27.9243 17.074 28.1138 16.9968C28.3033 16.9195 28.5075 16.885 28.7119 16.8958H32.397V11.2505H27.3237C21.6912 11.2505 20.4129 15.4595 20.4129 18.1525V21.9425H17.1572V27.7573H20.4129V41.9801H21.0221C23.1414 41.9671 25.2462 41.6307 27.2638 40.9827V27.7074H31.7778Z" fill="white"/>
<path d="M60.1501 25.2738L58.722 30.6098L53.489 30.7195C51.9089 27.7779 51.0696 24.4962 51.0435 21.1581C51.0174 17.82 51.8053 14.5257 53.3392 11.5597L57.993 12.4175L59.9903 17.0354C59.5526 18.32 59.3299 19.6679 59.3312 21.0249C59.3476 22.4787 59.625 23.9178 60.1501 25.2738Z" fill="#FBBB00"/>
<path d="M91.7681 17.165C92.0097 18.4274 92.1301 19.7098 92.1276 20.995C92.1259 22.4362 91.9753 23.8734 91.6782 25.2838C90.6892 29.9016 88.1354 34.0374 84.4478 36.9931L78.5856 36.6939L77.7567 31.5274C80.1742 30.1083 82.0317 27.9047 83.0197 25.2838H72.0343V17.165H91.7681Z" fill="#518EF8"/>
<path d="M84.4479 36.9931C82.0969 38.8775 79.3597 40.2224 76.4302 40.9324C73.5008 41.6423 70.4508 41.7 67.4965 41.1014C64.5422 40.5027 61.756 39.2623 59.3352 37.4682C56.9145 35.674 54.9186 33.3701 53.489 30.7195L60.1502 25.2738C60.7755 26.9378 61.757 28.4453 63.0263 29.6911C64.2955 30.9369 65.8218 31.8909 67.4985 32.4865C69.1752 33.082 70.9619 33.3047 72.7337 33.1391C74.5056 32.9734 76.2199 32.4234 77.7568 31.5274L84.4479 36.9931Z" fill="#28B446"/>
<path d="M84.6975 5.20636L78.0464 10.6421C76.4873 9.68237 74.7323 9.08445 72.911 8.8925C71.0896 8.70055 69.2484 8.91946 67.523 9.53308C65.7977 10.1467 64.2324 11.1394 62.9424 12.4378C61.6525 13.7363 60.671 15.3075 60.0703 17.0354L53.3792 11.5597C54.7908 8.8378 56.7952 6.46639 59.2451 4.61978C61.6949 2.77317 64.528 1.49829 67.536 0.88885C70.5441 0.279407 73.6506 0.350888 76.6274 1.09804C79.6041 1.84519 82.3754 3.24902 84.7375 5.20636H84.6975Z" fill="#F14336"/>
<path d="M122.148 41.8205C133.664 41.8205 143 32.4966 143 20.995C143 9.49343 133.664 0.169556 122.148 0.169556C110.631 0.169556 101.295 9.49343 101.295 20.995C101.295 32.4966 110.631 41.8205 122.148 41.8205Z" fill="#EFEFEF"/>
<path d="M131.915 16.796C131.397 17.2484 130.91 17.7349 130.457 18.2522C129.925 18.9063 129.546 19.6706 129.348 20.4895C129.149 21.3083 129.136 22.1611 129.309 22.9856C129.482 23.8102 129.837 24.5858 130.349 25.256C130.86 25.9262 131.514 26.474 132.264 26.8597C132.674 27.0791 132.664 27.0791 132.514 27.508C131.828 29.3864 130.784 31.114 129.438 32.5946C128.95 33.2317 128.248 33.6719 127.461 33.8349C126.675 33.9979 125.856 33.8728 125.154 33.4823C124.293 33.0414 123.334 32.8252 122.367 32.854C121.698 32.917 121.044 33.0888 120.43 33.3626C120.071 33.518 119.705 33.6545 119.332 33.7716C118.847 33.9332 118.327 33.9611 117.828 33.8522C117.329 33.7434 116.868 33.5019 116.495 33.1532C115.496 32.2501 114.652 31.1886 113.999 30.0114C112.64 27.8012 111.851 25.2895 111.702 22.7006C111.51 20.7669 111.982 18.8255 113.04 17.195C113.626 16.2548 114.465 15.4981 115.461 15.0113C116.457 14.5246 117.57 14.3273 118.672 14.4422C119.252 14.5445 119.82 14.7015 120.37 14.911C120.71 15.0207 121.029 15.1603 121.369 15.29C121.977 15.5394 122.658 15.5394 123.266 15.29C124.158 14.9279 125.072 14.6247 126.003 14.3823C127.116 14.1869 128.261 14.3098 129.308 14.7369C130.354 15.164 131.258 15.8778 131.915 16.796Z" fill="black"/>
<path d="M127.311 8.6374C127.279 9.84207 126.859 11.0045 126.115 11.9528C125.37 12.9011 124.34 13.5851 123.176 13.9036C122.927 13.9535 122.667 13.9535 122.407 13.9834C122.148 14.0133 122.158 13.9136 122.148 13.734C122.098 12.7653 122.338 11.8037 122.837 10.9713C123.23 10.2411 123.779 9.60622 124.445 9.11156C125.111 8.61689 125.878 8.27455 126.692 8.10878C127.311 7.97912 127.311 7.97912 127.311 8.6374Z" fill="black"/>
</svg>
