<svg width="122" height="38" viewBox="0 0 122 38" fill="none" xmlns="http://www.w3.org/2000/svg">
<path d="M21.5649 14.9462V18.9748H14.9606V16.8598C14.4678 16.2164 13.8243 15.7044 13.0868 15.3689C12.3494 15.0334 11.5407 14.8848 10.7321 14.9361C9.94211 14.8959 9.15399 15.046 8.43397 15.3737C7.71395 15.7015 7.08307 16.1973 6.59432 16.8195V18.9849C7.08764 19.8712 8.41657 20.415 10.0878 20.7575L12.796 21.3517C18.2627 22.4797 20.7696 24.4537 21.5649 25.7328V32.8736C20.5582 34.4044 17.4271 38 10.7321 38C4.03713 38 0.936293 34.3541 0 32.8736V28.6435H6.59432V30.9499C7.07649 31.5821 7.70507 32.0875 8.42591 32.4226C9.14674 32.7577 9.93822 32.9125 10.7321 32.8736C11.5407 32.9249 12.3494 32.7763 13.0868 32.4408C13.8243 32.1053 14.4678 31.5932 14.9606 30.9499V28.4924C14.4672 27.6061 13.239 27.0623 11.5174 26.7198L8.75887 26.1256C3.25186 25.048 0.704737 23.0236 0 21.6941V14.8958C1.00677 13.4254 4.13781 9.86005 10.7825 9.86005C17.4271 9.86005 20.5783 13.5261 21.5649 14.9462Z" fill="white"/>
<path d="M50.0666 32.0376H52.0801V37.2648H43.4219V34.9483C42.5058 35.9217 41.3898 36.6851 40.1506 37.1858C38.9115 37.6865 37.5786 37.9128 36.2437 37.8489C34.323 37.9063 32.4322 37.3627 30.8351 36.2939C29.2379 35.2251 28.0139 33.6844 27.3338 31.8866V15.7721H25.2498V10.5651H34.4617V30.3154C34.9221 30.9741 35.5427 31.5047 36.2649 31.8571C36.987 32.2095 37.787 32.3722 38.5894 32.3297C39.3888 32.365 40.1868 32.2347 40.9335 31.947C41.6802 31.6593 42.3594 31.2204 42.9286 30.6578V15.7418H40.8043V10.5651H50.0666V32.0376Z" fill="white"/>
<path d="M72.7893 10.414V16.8195C72.1449 16.7691 71.7825 16.7691 71.6013 16.7691C68.0575 16.7691 65.8426 17.8569 64.8157 18.9345V32.0276H67.2218V37.2648H55.6038V32.0376H57.728V15.7418H55.6038V10.5651H64.3224V14.1606C65.1118 12.925 66.2167 11.9226 67.5228 11.2569C68.8289 10.5912 70.289 10.2863 71.7523 10.3737C71.9537 10.3737 72.3966 10.3737 72.7893 10.414Z" fill="white"/>
<path d="M101.563 15.7418H99.9417L92.9447 37.2648H84.3368L77.3499 15.7418H75.6686V10.5651H86.3504V15.7418H84.7295L88.8673 30.5571H89.0586L93.2467 15.7418H91.7164V10.5651H101.563V15.7418Z" fill="white"/>
<path d="M106.969 13.4858L110.201 15.8929L113.422 11.542L116.775 16.0944L120.087 13.6772L116.775 9.17519L122 7.51338L120.802 3.75669L115.577 5.45879V0H111.51V5.45879L106.294 3.59555L105.016 7.35224L110.322 9.17519L106.969 13.4858Z" fill="white"/>
</svg>
