<svg width="202" height="158" viewBox="0 0 202 158" fill="none" xmlns="http://www.w3.org/2000/svg">
<path d="M200.341 154.685H198.267C198.049 154.685 197.834 154.727 197.632 154.811C197.431 154.894 197.248 155.016 197.094 155.17C196.94 155.324 196.818 155.507 196.734 155.708C196.651 155.909 196.608 156.125 196.608 156.342C196.608 156.56 196.651 156.776 196.734 156.977C196.818 157.178 196.94 157.361 197.094 157.514C197.248 157.668 197.431 157.791 197.632 157.874C197.834 157.957 198.049 158 198.267 158H200.341C200.559 158 200.775 157.957 200.976 157.874C201.177 157.791 201.36 157.668 201.514 157.514C201.668 157.361 201.79 157.178 201.874 156.977C201.957 156.776 202 156.56 202 156.342C202 156.125 201.957 155.909 201.874 155.708C201.79 155.507 201.668 155.324 201.514 155.17C201.36 155.016 201.177 154.894 200.976 154.811C200.775 154.727 200.559 154.685 200.341 154.685Z" fill="white"/>
<path d="M192.261 154.685H39.4613C39.2434 154.685 39.0277 154.727 38.8264 154.811C38.6251 154.894 38.4422 155.016 38.2882 155.17C38.1341 155.324 38.0119 155.507 37.9285 155.708C37.8452 155.909 37.8022 156.125 37.8022 156.342C37.8022 156.56 37.8452 156.776 37.9285 156.977C38.0119 157.178 38.1341 157.361 38.2882 157.514C38.4422 157.668 38.6251 157.791 38.8264 157.874C39.0277 157.957 39.2434 158 39.4613 158H192.261C192.479 158 192.695 157.957 192.896 157.874C193.097 157.791 193.28 157.668 193.434 157.514C193.588 157.361 193.711 157.178 193.794 156.977C193.877 156.776 193.92 156.56 193.92 156.342C193.92 156.125 193.877 155.909 193.794 155.708C193.711 155.507 193.588 155.324 193.434 155.17C193.28 155.016 193.097 154.894 192.896 154.811C192.695 154.727 192.479 154.685 192.261 154.685Z" fill="white"/>
<path d="M31.0862 154.685H13.1079C12.6679 154.685 12.2459 154.859 11.9348 155.17C11.6236 155.481 11.4489 155.903 11.4489 156.342C11.4489 156.782 11.6236 157.204 11.9348 157.514C12.2459 157.825 12.6679 158 13.1079 158H31.0862C31.3041 158 31.5198 157.957 31.7211 157.874C31.9224 157.791 32.1053 157.668 32.2594 157.514C32.4134 157.361 32.5356 157.178 32.619 156.977C32.7024 156.776 32.7453 156.56 32.7453 156.342C32.7453 156.125 32.7024 155.909 32.619 155.708C32.5356 155.507 32.4134 155.324 32.2594 155.17C32.1053 155.016 31.9224 154.894 31.7211 154.811C31.5198 154.727 31.3041 154.685 31.0862 154.685Z" fill="white"/>
<path d="M2.65908 154.685C2.27523 154.684 1.90316 154.817 1.60627 155.06C1.30938 155.303 1.10603 155.642 1.03089 156.018C0.955739 156.394 1.01344 156.784 1.19416 157.123C1.37487 157.461 1.66742 157.726 2.02196 157.873C2.37649 158.02 2.77106 158.04 3.13845 157.929C3.50584 157.818 3.8233 157.583 4.03674 157.264C4.25018 156.945 4.34639 156.562 4.30898 156.181C4.27157 155.799 4.10285 155.442 3.83158 155.171C3.5207 154.86 3.09896 154.685 2.65908 154.685Z" fill="white"/>
<path d="M76.1758 123.882C75.7358 123.882 75.3138 124.056 75.0027 124.367C74.6915 124.678 74.5167 125.1 74.5167 125.539C74.5167 125.979 74.6915 126.401 75.0027 126.711C75.3138 127.022 75.7358 127.197 76.1758 127.197C76.6153 127.195 77.0364 127.02 77.3483 126.711C77.659 126.4 77.8336 125.979 77.8336 125.539C77.8336 125.1 77.659 124.679 77.3483 124.368C77.0364 124.058 76.6153 123.884 76.1758 123.882Z" fill="white"/>
<path d="M134.904 80.6298H57.1844C55.808 80.6319 54.4884 81.1792 53.5151 82.1518C52.5418 83.1243 51.9941 84.4427 51.9919 85.8181V142.658C51.9962 146.724 53.6143 150.621 56.4914 153.496C59.3685 156.371 63.2694 157.988 67.3381 157.992H124.767C128.834 157.986 132.733 156.368 135.608 153.493C138.484 150.619 140.101 146.722 140.105 142.658V85.8181C140.103 84.4414 139.554 83.1217 138.579 82.1489C137.604 81.1762 136.282 80.6298 134.904 80.6298ZM136.787 142.658C136.783 145.844 135.514 148.899 133.259 151.152C131.004 153.405 127.947 154.672 124.759 154.677H117.58V102.658C117.58 102.219 117.405 101.797 117.094 101.486C116.783 101.175 116.361 101 115.921 101C115.481 101 115.059 101.175 114.748 101.486C114.437 101.797 114.262 102.219 114.262 102.658V154.685H77.8348V135.932C77.8348 135.714 77.7919 135.499 77.7085 135.297C77.6251 135.096 77.5029 134.914 77.3489 134.76C77.1948 134.606 77.0119 134.484 76.8106 134.4C76.6094 134.317 76.3936 134.274 76.1758 134.274C75.9579 134.274 75.7421 134.317 75.5409 134.4C75.3396 134.484 75.1567 134.606 75.0026 134.76C74.8486 134.914 74.7264 135.096 74.643 135.297C74.5596 135.499 74.5167 135.714 74.5167 135.932V154.685H67.3381C64.148 154.68 61.0899 153.412 58.8348 151.157C56.5798 148.902 55.3121 145.846 55.31 142.658V85.8181C55.31 85.3214 55.5075 84.845 55.859 84.4938C56.2106 84.1425 56.6873 83.9452 57.1844 83.9452H74.5167V118.43C74.5167 118.87 74.6915 119.292 75.0026 119.602C75.3138 119.913 75.7357 120.088 76.1758 120.088C76.6158 120.088 77.0377 119.913 77.3489 119.602C77.66 119.292 77.8348 118.87 77.8348 118.43V83.9452H114.262V93.6524C114.262 94.092 114.437 94.5136 114.748 94.8245C115.059 95.1354 115.481 95.3101 115.921 95.3101C116.361 95.3101 116.783 95.1354 117.094 94.8245C117.405 94.5136 117.58 94.092 117.58 93.6524V83.9452H134.904C135.402 83.9452 135.88 84.1423 136.233 84.4933C136.585 84.8443 136.785 85.3207 136.787 85.8181V142.658Z" fill="white"/>
<path d="M91.2906 118.43C91.426 119.595 91.985 120.67 92.8615 121.45C93.738 122.23 94.8707 122.661 96.0445 122.661C97.2182 122.661 98.351 122.23 99.2274 121.45C100.104 120.67 100.663 119.595 100.798 118.43H91.2906Z" fill="white"/>
<path d="M96.0444 124.009C94.5636 124.009 93.1435 123.421 92.0964 122.375C91.0493 121.329 90.4611 119.91 90.4611 118.43C90.4611 118.219 90.5451 118.016 90.6947 117.867C90.8443 117.717 91.0471 117.633 91.2587 117.633H100.766C100.978 117.633 101.181 117.717 101.33 117.867C101.48 118.016 101.564 118.219 101.564 118.43C101.564 119.899 100.985 121.308 99.9512 122.353C98.9179 123.397 97.5141 123.992 96.0444 124.009ZM92.2078 119.227C92.3966 120.104 92.8803 120.889 93.5784 121.453C94.2766 122.016 95.1469 122.324 96.0444 122.324C96.9419 122.324 97.8122 122.016 98.5103 121.453C99.2085 120.889 99.6922 120.104 99.8809 119.227H92.2078Z" fill="white"/>
<path d="M91.2906 108.062C91.0791 108.062 90.8762 107.978 90.7266 107.828C90.577 107.679 90.493 107.476 90.493 107.265C90.51 106.999 90.4724 106.733 90.3825 106.483C90.2926 106.233 90.1523 106.004 89.9703 105.81C89.7883 105.616 89.5684 105.461 89.3243 105.356C89.0801 105.25 88.8169 105.196 88.5508 105.196C88.2847 105.196 88.0215 105.25 87.7773 105.356C87.5332 105.461 87.3133 105.616 87.1313 105.81C86.9493 106.004 86.809 106.233 86.7191 106.483C86.6292 106.733 86.5916 106.999 86.6086 107.265C86.6086 107.484 86.5212 107.695 86.3656 107.851C86.2101 108.006 85.9991 108.094 85.7791 108.094C85.5591 108.094 85.3481 108.006 85.1925 107.851C85.0369 107.695 84.9495 107.484 84.9495 107.265C84.9024 106.765 84.9601 106.262 85.119 105.786C85.2779 105.31 85.5346 104.873 85.8725 104.502C86.2103 104.131 86.622 103.834 87.0812 103.631C87.5403 103.429 88.0368 103.324 88.5388 103.324C89.0408 103.324 89.5373 103.429 89.9965 103.631C90.4556 103.834 90.8673 104.131 91.2052 104.502C91.5431 104.873 91.7997 105.31 91.9586 105.786C92.1176 106.262 92.1753 106.765 92.1281 107.265C92.1282 107.373 92.1064 107.48 92.0638 107.579C92.0213 107.679 91.9589 107.768 91.8806 107.843C91.8022 107.917 91.7095 107.975 91.6081 108.013C91.5067 108.05 91.3987 108.067 91.2906 108.062Z" fill="white"/>
<path d="M106.35 108.062C106.138 108.062 105.935 107.978 105.786 107.828C105.636 107.679 105.552 107.476 105.552 107.265C105.552 106.749 105.347 106.254 104.982 105.89C104.617 105.525 104.122 105.32 103.606 105.32C103.09 105.32 102.595 105.525 102.23 105.89C101.865 106.254 101.66 106.749 101.66 107.265C101.66 107.484 101.572 107.695 101.417 107.851C101.261 108.006 101.05 108.094 100.83 108.094C100.61 108.094 100.399 108.006 100.244 107.851C100.088 107.695 100.001 107.484 100.001 107.265C100.085 106.372 100.5 105.543 101.163 104.939C101.827 104.335 102.692 104.001 103.59 104.001C104.487 104.001 105.353 104.335 106.016 104.939C106.68 105.543 107.095 106.372 107.179 107.265C107.179 107.372 107.158 107.478 107.116 107.577C107.074 107.676 107.012 107.765 106.934 107.84C106.857 107.914 106.765 107.972 106.665 108.01C106.564 108.049 106.457 108.066 106.35 108.062Z" fill="white"/>
<path d="M87.8847 114.645C87.8863 115.082 87.7579 115.51 87.5157 115.874C87.2736 116.238 86.9286 116.523 86.5245 116.691C86.1205 116.859 85.6756 116.903 85.2463 116.818C84.8169 116.733 84.4225 116.523 84.1131 116.214C83.8036 115.904 83.593 115.51 83.508 115.081C83.423 114.652 83.4674 114.208 83.6356 113.804C83.8039 113.4 84.0883 113.056 84.4528 112.814C84.8174 112.572 85.2457 112.443 85.6833 112.445C86.2672 112.445 86.8271 112.677 87.24 113.089C87.6528 113.502 87.8847 114.061 87.8847 114.645Z" fill="#D9E0FF"/>
<path d="M108.615 114.645C108.616 115.082 108.488 115.51 108.246 115.874C108.004 116.238 107.659 116.523 107.255 116.691C106.851 116.859 106.406 116.903 105.976 116.818C105.547 116.733 105.153 116.523 104.843 116.214C104.534 115.904 104.323 115.51 104.238 115.081C104.153 114.652 104.198 114.208 104.366 113.804C104.534 113.4 104.818 113.056 105.183 112.814C105.547 112.572 105.976 112.443 106.413 112.445C106.997 112.445 107.557 112.677 107.97 113.089C108.383 113.502 108.615 114.061 108.615 114.645Z" fill="#D9E0FF"/>
<path d="M191.998 105.519C191.68 105.399 191.332 105.38 191.003 105.464C190.673 105.549 190.377 105.732 190.155 105.99C188.674 107.723 186.706 108.973 184.507 109.578C182.308 110.183 179.977 110.116 177.816 109.385C177.502 109.282 177.193 109.162 176.891 109.026C177.579 106.439 177.29 103.689 176.08 101.3C174.869 98.9118 172.821 97.052 170.327 96.0751C170.696 94.4131 171.432 92.8547 172.483 91.5142C173.533 90.1738 174.87 89.0853 176.397 88.3286C177.721 87.6765 179.159 87.2842 180.632 87.173C180.972 87.151 181.297 87.0245 181.562 86.8108C181.827 86.5971 182.02 86.3067 182.113 85.9793C182.207 85.6519 182.197 85.3037 182.084 84.9823C181.972 84.661 181.763 84.3822 181.485 84.1843C176.442 80.5148 170.335 78.5947 164.097 78.7171C163.708 78.7277 163.335 78.8749 163.043 79.1328C162.751 79.3907 162.56 79.7429 162.502 80.1277C161.745 85.0103 161.831 89.9864 162.757 94.8398L146.55 62.1639C146.04 61.1285 145.331 60.2037 144.463 59.4427C143.595 58.6817 142.585 58.0993 141.491 57.7291C140.397 57.3589 139.241 57.2081 138.089 57.2853C136.937 57.3625 135.811 57.6662 134.777 58.1791L126.378 62.3233C125.342 62.8325 124.416 63.541 123.654 64.4084C122.893 65.2757 122.31 66.2847 121.939 67.3776C121.569 68.4705 121.418 69.6257 121.495 70.777C121.573 71.9283 121.877 73.053 122.39 74.0866L161.545 153.115C162.271 154.584 163.395 155.821 164.79 156.685C166.184 157.548 167.793 158.004 169.433 158C170.782 158 172.112 157.686 173.318 157.083L181.717 152.931C182.753 152.422 183.678 151.714 184.44 150.846C185.202 149.979 185.785 148.97 186.155 147.877C186.526 146.784 186.677 145.629 186.599 144.478C186.522 143.326 186.218 142.202 185.705 141.168L173.158 115.864C176.496 119.574 180.446 122.684 184.835 125.061C185.08 125.194 185.354 125.263 185.633 125.26C185.883 125.259 186.129 125.202 186.354 125.093C186.579 124.984 186.777 124.826 186.933 124.631C190.884 119.637 193.047 113.463 193.075 107.097C193.082 106.755 192.983 106.419 192.79 106.136C192.597 105.853 192.32 105.637 191.998 105.519ZM164.847 98.7609H164.959H165.19H165.318H165.533H165.669H165.884H166.682H166.977H167.328L167.663 98.8167H167.734L167.998 98.8725H168.085L168.333 98.9363H168.42L168.668 99.016H168.747L169.003 99.1036H169.074C169.17 99.1036 169.266 99.1833 169.362 99.2232C169.58 99.3209 169.793 99.43 170 99.55C171.297 100.288 172.348 101.391 173.023 102.722C173.698 104.052 173.967 105.552 173.796 107.034C173.796 107.153 173.796 107.273 173.74 107.392C173.646 107.993 173.477 108.579 173.238 109.138V109.177C173.238 109.273 173.15 109.369 173.11 109.456V109.512L172.967 109.783V109.831L172.799 110.126C172.672 110.333 172.536 110.532 172.392 110.724L172.345 110.787L172.177 110.994L172.105 111.082C172.057 111.146 172.002 111.202 171.954 111.258L171.866 111.353L171.707 111.52L171.619 111.608L171.435 111.776L171.356 111.855L171.084 112.086L164.512 98.8247L164.847 98.7609ZM170.335 97.8763L170.454 97.9321L170.335 97.8763ZM170.686 98.0516L170.829 98.1234L170.686 98.0516ZM171.045 98.2509L171.188 98.3386L171.045 98.2509ZM171.395 98.4661L171.539 98.5697L171.395 98.4661ZM171.738 98.7052C171.792 98.7378 171.843 98.7751 171.89 98.8167C171.843 98.7779 171.792 98.7432 171.738 98.7131V98.7052ZM173.142 99.9405L173.302 100.124L173.142 99.9405ZM173.429 100.267L173.581 100.459L173.429 100.267ZM173.701 100.61L173.852 100.809L173.701 100.61ZM174.825 102.523C174.769 102.387 174.706 102.252 174.642 102.116C174.706 102.26 174.769 102.395 174.825 102.531V102.523ZM175.623 105.583C175.623 105.535 175.623 105.487 175.623 105.448C175.623 105.408 175.575 105.543 175.583 105.591L175.623 105.583ZM175.623 105.177C175.623 105.129 175.623 105.089 175.623 105.041C175.623 104.993 175.535 105.137 175.543 105.2L175.623 105.177ZM175.535 104.579C175.535 104.515 175.535 104.443 175.495 104.372C175.431 104.451 175.439 104.523 175.455 104.587L175.535 104.579ZM175.447 104.172L175.4 103.949L175.447 104.172ZM175.344 103.758L175.28 103.527L175.344 103.758ZM175.216 103.344C175.216 103.264 175.168 103.184 175.136 103.096C175.088 103.192 175.112 103.272 175.136 103.352L175.216 103.344ZM175.072 102.929C175.072 102.841 175.001 102.754 174.961 102.658C174.921 102.762 174.961 102.849 174.993 102.937L175.072 102.929ZM174.083 101.216L173.932 101L174.083 101.216ZM174.618 102.148L174.402 101.75L174.618 102.148ZM174.331 101.622L174.179 101.367L174.331 101.622ZM172.983 99.8289L172.815 99.6615L172.983 99.8289ZM172.05 99.0319L172.201 99.1515L172.05 99.0319ZM172.377 99.2949L172.68 99.5659L172.377 99.2949ZM165.557 82.1042C169.253 82.2405 172.874 83.1845 176.165 84.8697C175.742 85.0371 175.32 85.2204 174.905 85.4276C172.937 86.4024 171.212 87.8041 169.855 89.5304C168.499 91.2568 167.545 93.264 167.064 95.4057C166.785 95.4057 166.498 95.4057 166.219 95.4057C165.258 91.0178 165.042 86.4998 165.581 82.0404L165.557 82.1042ZM125.373 72.6122C124.732 71.3141 124.632 69.8149 125.095 68.4434C125.559 67.0718 126.548 65.94 127.845 65.296L136.252 61.1438C136.895 60.8255 137.595 60.6369 138.311 60.5888C139.027 60.5407 139.746 60.634 140.426 60.8634C141.106 61.0929 141.734 61.4539 142.274 61.9259C142.814 62.398 143.256 62.9717 143.575 63.6144L154.637 85.9297L136.436 94.9355L125.373 72.6122ZM182.738 142.658C183.379 143.956 183.479 145.456 183.015 146.827C182.552 148.199 181.563 149.331 180.265 149.974L171.866 154.127C170.566 154.77 169.064 154.871 167.689 154.408C166.315 153.944 165.18 152.955 164.536 151.656L157.19 136.832L170.606 130.194L175.392 127.803L182.738 142.658ZM173.732 124.95L155.914 133.764L138.103 97.8285L155.922 89.014L173.732 124.95ZM173.908 111.6L174.067 111.361L173.908 111.6ZM185.178 121.459C181.332 119.199 177.889 116.314 174.993 112.923C175.2 112.652 175.392 112.373 175.575 112.126C175.958 112.294 176.373 112.445 176.755 112.58C178.589 113.205 180.529 113.461 182.462 113.332C184.395 113.204 186.283 112.694 188.018 111.831C188.504 111.584 188.983 111.313 189.438 111.034C188.818 114.779 187.362 118.337 185.178 121.443V121.459Z" fill="white"/>
<path d="M85.9386 26.8739C85.3312 26.4483 84.884 25.8316 84.6686 25.1223C84.4532 24.4129 84.4819 23.6519 84.7501 22.9608C84.773 22.9001 84.8078 22.8446 84.8525 22.7976C84.8972 22.7506 84.9509 22.713 85.0103 22.687C85.0698 22.661 85.1338 22.6471 85.1987 22.6463C85.2636 22.6454 85.3281 22.6575 85.3882 22.6819C85.5095 22.7299 85.6069 22.8238 85.6592 22.9432C85.7115 23.0626 85.7144 23.1979 85.6674 23.3194C85.5008 23.7313 85.4591 24.1831 85.5477 24.6185C85.6069 24.9184 85.7246 25.2036 85.8941 25.458C86.0636 25.7124 86.2816 25.931 86.5357 26.1012C86.7897 26.2714 87.0748 26.3899 87.3747 26.4501C87.6746 26.5102 87.9835 26.5107 88.2835 26.4515C88.5836 26.3924 88.8691 26.2748 89.1237 26.1054C89.3783 25.936 89.5971 25.7182 89.7674 25.4644C89.9378 25.2105 90.0564 24.9257 90.1166 24.626C90.1767 24.3263 90.1773 24.0178 90.1181 23.7179C90.0589 23.4181 89.9412 23.1328 89.7717 22.8784C89.6022 22.624 89.3842 22.4054 89.1301 22.2352C88.8761 22.065 88.591 21.9464 88.2911 21.8863C87.9912 21.8262 87.6823 21.8257 87.3822 21.8849C87.2544 21.9083 87.1224 21.8804 87.0149 21.8073C86.9074 21.7343 86.8331 21.6218 86.808 21.4944C86.7952 21.4316 86.795 21.3668 86.8073 21.3039C86.8197 21.2411 86.8443 21.1812 86.8799 21.1279C86.9155 21.0746 86.9613 21.0288 87.0146 20.9932C87.068 20.9576 87.1279 20.9329 87.1908 20.9205C87.6212 20.8277 88.0658 20.8218 88.4984 20.9032C88.9311 20.9846 89.3431 21.1516 89.7102 21.3944C90.0774 21.6372 90.3922 21.951 90.6362 22.3171C90.8802 22.6833 91.0484 23.0946 91.131 23.5267C91.2612 24.1761 91.1932 24.8497 90.9359 25.4601C90.6786 26.0705 90.2437 26.5897 89.6877 26.9503C89.1317 27.311 88.4801 27.4965 87.8173 27.4829C87.1546 27.4693 86.5112 27.2571 85.9705 26.8739H85.9386Z" fill="white"/>
<path d="M62.1934 15.4135C61.4375 15.4151 60.698 15.1925 60.0687 14.774C59.4393 14.3555 58.9484 13.7598 58.658 13.0624C58.3676 12.365 58.2908 11.5972 58.4373 10.8561C58.5838 10.1151 58.9471 9.4341 59.4811 8.89942C60.0151 8.36473 60.6958 8.00036 61.4372 7.85241C62.1785 7.70447 62.9471 7.7796 63.6457 8.0683C64.3443 8.357 64.9414 8.8463 65.3616 9.47425C65.7818 10.1022 66.0061 10.8406 66.0061 11.596C66.004 12.6064 65.6018 13.575 64.8875 14.2902C64.1732 15.0055 63.2047 15.4093 62.1934 15.4135ZM62.1934 8.91814C61.6611 8.91656 61.1403 9.07294 60.6971 9.36746C60.2538 9.66197 59.9081 10.0814 59.7036 10.5724C59.4992 11.0635 59.4453 11.6042 59.5488 12.1259C59.6522 12.6477 59.9084 13.127 60.2848 13.5031C60.6612 13.8792 61.1409 14.1351 61.663 14.2385C62.1852 14.3419 62.7263 14.288 63.2178 14.0838C63.7093 13.8795 64.129 13.534 64.4238 13.0911C64.7185 12.6482 64.875 12.1278 64.8734 11.596C64.8713 10.8864 64.5883 10.2065 64.0862 9.70478C63.584 9.20304 62.9036 8.92024 62.1934 8.91814Z" fill="white"/>
<path d="M80.3633 61.1358C80.2171 61.1391 80.0728 61.1022 79.9462 61.0291C79.8196 60.9561 79.7156 60.8496 79.6454 60.7214L76.0561 54.505C76.0012 54.4129 75.9654 54.3107 75.9509 54.2044C75.9364 54.0982 75.9435 53.9901 75.9718 53.8867C76.0001 53.7833 76.049 53.6866 76.1156 53.6025C76.1822 53.5184 76.265 53.4486 76.3592 53.3972C76.5501 53.2896 76.7757 53.261 76.9874 53.3176C77.1992 53.3742 77.3803 53.5115 77.4919 53.7001L81.0811 59.9165C81.14 60.0095 81.179 60.1137 81.1956 60.2225C81.2122 60.3313 81.2061 60.4423 81.1776 60.5486C81.1492 60.655 81.0989 60.7542 81.0302 60.8402C80.9614 60.9262 80.8756 60.997 80.778 61.0482C80.6502 61.1142 80.5069 61.1445 80.3633 61.1358Z" fill="white"/>
<path d="M74.9394 51.7475C74.7924 51.75 74.6476 51.7119 74.5209 51.6374C74.3942 51.5628 74.2906 51.4548 74.2216 51.3251L73.5835 50.2651C73.4753 50.0732 73.4465 49.8466 73.5031 49.6337C73.5597 49.4208 73.6973 49.2384 73.8866 49.1254C73.9801 49.0669 74.0849 49.0284 74.1941 49.0124C74.3033 48.9963 74.4147 49.0031 74.5212 49.0324C74.6276 49.0616 74.7269 49.1126 74.8126 49.1821C74.8983 49.2516 74.9687 49.3382 75.0192 49.4363L75.6413 50.4962C75.7516 50.6877 75.7816 50.915 75.7248 51.1285C75.668 51.342 75.5291 51.5244 75.3382 51.6359C75.2158 51.7035 75.0792 51.7417 74.9394 51.7475Z" fill="white"/>
<path d="M68.9014 72.6441C68.7562 72.6409 68.6139 72.6026 68.4866 72.5326L64.0838 69.9902C63.9895 69.9379 63.9065 69.8675 63.8394 69.7831C63.7724 69.6987 63.7226 69.602 63.693 69.4984C63.6633 69.3947 63.6544 69.2863 63.6667 69.1793C63.6791 69.0722 63.7123 68.9686 63.7647 68.8744C63.8171 68.7803 63.8875 68.6973 63.972 68.6303C64.0564 68.5633 64.1533 68.5136 64.257 68.484C64.3607 68.4544 64.4692 68.4455 64.5763 68.4578C64.6835 68.4701 64.7871 68.5033 64.8814 68.5557L69.2842 71.098C69.4894 71.153 69.6644 71.2871 69.7706 71.471C69.8768 71.6548 69.9056 71.8733 69.8506 72.0783C69.7956 72.2833 69.6613 72.4581 69.4773 72.5642C69.2933 72.6703 69.0747 72.6991 68.8695 72.6441H68.9014Z" fill="white"/>
<path d="M59.7687 67.3761C59.6234 67.3729 59.4811 67.3346 59.3539 67.2646L58.0219 66.4676C57.8315 66.3619 57.6909 66.185 57.6311 65.9757C57.5713 65.7665 57.5971 65.5421 57.7028 65.3518C57.8086 65.1616 57.9857 65.0211 58.1951 64.9614C58.4045 64.9016 58.6291 64.9274 58.8195 65.033L60.1515 65.83C60.3567 65.885 60.5317 66.0191 60.6379 66.203C60.7441 66.3868 60.7728 66.6053 60.7178 66.8103C60.6628 67.0153 60.5286 67.1901 60.3446 67.2962C60.1606 67.4024 59.942 67.4311 59.7368 67.3761H59.7687Z" fill="white"/>
<path d="M111.75 61.0641C111.604 61.0618 111.462 61.0235 111.335 60.9525C111.237 60.9014 111.151 60.8305 111.083 60.7446C111.014 60.6586 110.964 60.5593 110.935 60.453C110.907 60.3467 110.901 60.2356 110.917 60.1268C110.934 60.018 110.973 59.9138 111.032 59.8208L114.023 54.6405C114.134 54.452 114.315 54.3146 114.527 54.258C114.739 54.2014 114.964 54.23 115.155 54.3377C115.253 54.3888 115.339 54.4596 115.408 54.5456C115.476 54.6316 115.526 54.7309 115.555 54.8372C115.583 54.9435 115.59 55.0546 115.573 55.1634C115.556 55.2722 115.517 55.3764 115.458 55.4694L112.467 60.6497C112.397 60.7779 112.293 60.8843 112.167 60.9574C112.04 61.0305 111.896 61.0674 111.75 61.0641Z" fill="white"/>
<path d="M117.795 50.5998C117.576 50.5976 117.365 50.5122 117.205 50.3608C117.052 50.2024 116.967 49.9911 116.966 49.771C116.964 49.6629 116.985 49.5555 117.026 49.4555C117.067 49.3555 117.128 49.2649 117.205 49.1892C117.364 49.0396 117.573 48.9562 117.791 48.9562C118.009 48.9562 118.219 49.0396 118.378 49.1892C118.456 49.2642 118.519 49.3545 118.562 49.4546C118.604 49.5546 118.626 49.6623 118.625 49.771C118.625 49.9824 118.541 50.1851 118.391 50.3345C118.242 50.484 118.039 50.568 117.827 50.568L117.795 50.5998Z" fill="white"/>
<path d="M96.0444 56.8959C95.8329 56.8959 95.63 56.812 95.4804 56.6625C95.3309 56.5131 95.2468 56.3103 95.2468 56.099V49.8029C95.2468 49.5831 95.3342 49.3722 95.4898 49.2168C95.6453 49.0614 95.8563 48.974 96.0763 48.974C96.2963 48.974 96.5073 49.0614 96.6629 49.2168C96.8185 49.3722 96.9059 49.5831 96.9059 49.8029V56.099C96.9062 56.2092 96.8837 56.3183 96.8397 56.4194C96.7956 56.5205 96.7311 56.6114 96.6502 56.6863C96.5692 56.7612 96.4736 56.8185 96.3693 56.8546C96.265 56.8907 96.1544 56.9048 96.0444 56.8959Z" fill="white"/>
<path d="M96.0444 46.2643C95.8329 46.2643 95.63 46.1803 95.4804 46.0309C95.3309 45.8814 95.2468 45.6787 95.2468 45.4673V43.9929C95.2468 43.7731 95.3342 43.5623 95.4898 43.4068C95.6453 43.2514 95.8563 43.1641 96.0763 43.1641C96.2963 43.1641 96.5073 43.2514 96.6629 43.4068C96.8185 43.5623 96.9059 43.7731 96.9059 43.9929V45.4275C96.9119 45.541 96.8936 45.6546 96.8521 45.7605C96.8107 45.8664 96.747 45.9621 96.6654 46.0414C96.5838 46.1207 96.4862 46.1816 96.3791 46.22C96.272 46.2585 96.1579 46.2736 96.0444 46.2643Z" fill="white"/>
<path d="M111.829 26.3639L118.154 31.082L124.479 22.5783L131.028 31.4645L137.513 26.7544L131.028 17.9399L141.253 14.6882L138.916 7.3481L128.691 10.6715V0H120.731V10.6715L110.505 7.03728L108.009 14.3854L118.386 17.9399L111.829 26.3639Z" fill="#0052D4"/>
<path d="M50.5243 48.9023L53.0767 50.8071L55.629 47.3721L58.2692 50.9585L60.8853 49.0537L58.2692 45.4992L62.3928 44.1922L61.4517 41.2274L57.328 42.5664V38.2627H54.1136V42.5664L49.9899 41.1079L48.9849 44.0647L53.1724 45.4992L50.5243 48.9023Z" fill="#0052D4"/>
<path d="M94.3614 74.2461L97.0654 76.2624L99.7773 72.6282L102.585 76.4298L105.353 74.4134L102.585 70.6358L106.956 69.249L105.959 66.101L101.58 67.5276V62.9609H98.1741V67.5276L93.7951 65.9735L92.7263 69.1135L97.1691 70.6358L94.3614 74.2461Z" fill="#0052D4"/>
</svg>
