<svg width="196" height="197" viewBox="0 0 196 197" fill="none" xmlns="http://www.w3.org/2000/svg">
<path d="M145.678 94.404H94.0672C96.0351 92.141 97.3109 89.3592 97.7424 86.3904C98.1738 83.4216 97.7427 80.3913 96.5005 77.6611C95.2582 74.9308 93.2573 72.6159 90.7365 70.9926C88.2156 69.3693 85.2814 68.5062 82.2838 68.5062C79.2863 68.5062 76.352 69.3693 73.8312 70.9926C71.3103 72.6159 69.3094 74.9308 68.0672 77.6611C66.8249 80.3913 66.3938 83.4216 66.8252 86.3904C67.2567 89.3592 68.5325 92.141 70.5004 94.404H58.1773C54.5979 94.4093 51.1666 95.8347 48.6355 98.3678C46.1045 100.901 44.6802 104.335 44.6749 107.917V123.861C44.6525 124.231 44.7058 124.6 44.8315 124.948C44.9572 125.296 45.1527 125.614 45.4059 125.884C45.6592 126.153 45.9648 126.368 46.304 126.514C46.6432 126.661 47.0089 126.737 47.3784 126.737C47.7479 126.737 48.1136 126.661 48.4528 126.514C48.792 126.368 49.0976 126.153 49.3509 125.884C49.6041 125.614 49.7996 125.296 49.9253 124.948C50.051 124.6 50.1043 124.231 50.0819 123.861V107.917C50.0819 105.769 50.9348 103.708 52.453 102.188C53.9712 100.669 56.0303 99.8153 58.1773 99.8153H133.795C135.942 99.8153 138.001 100.669 139.519 102.188C141.037 103.708 141.89 105.769 141.89 107.917V122.511H113.806C110.318 122.646 107.017 124.127 104.596 126.645C102.175 129.162 100.823 132.521 100.823 136.015C100.823 139.509 102.175 142.867 104.596 145.384C107.017 147.902 110.318 149.384 113.806 149.518H141.92V164.112C141.92 166.261 141.068 168.323 139.55 169.844C138.032 171.365 135.973 172.221 133.825 172.224H58.1773C56.0294 172.221 53.9703 171.365 52.4524 169.844C50.9345 168.323 50.0819 166.261 50.0819 164.112V148.108C50.04 147.418 49.7369 146.771 49.2345 146.298C48.7321 145.825 48.0683 145.562 47.3784 145.562C46.6885 145.562 46.0247 145.825 45.5223 146.298C45.0199 146.771 44.7168 147.418 44.6749 148.108V164.112C44.6749 167.698 46.0969 171.137 48.6285 173.674C51.1601 176.212 54.5944 177.64 58.1773 177.645H145.678C149.258 177.64 152.689 176.214 155.22 173.681C157.751 171.148 159.175 167.714 159.181 164.132V107.917C159.175 104.335 157.751 100.901 155.22 98.3678C152.689 95.8347 149.258 94.4093 145.678 94.404ZM82.2838 73.9388C84.304 73.9388 86.2788 74.5383 87.9586 75.6616C89.6383 76.7849 90.9475 78.3814 91.7206 80.2493C92.4937 82.1173 92.6959 84.1727 92.3018 86.1557C91.9077 88.1387 90.9349 89.9602 89.5064 91.3898C88.0779 92.8195 86.2579 93.7931 84.2765 94.1875C82.2951 94.582 80.2414 94.3795 78.375 93.6058C76.5086 92.8321 74.9133 91.5218 73.791 89.8407C72.6686 88.1596 72.0695 86.1832 72.0695 84.1614C72.0748 81.4518 73.1527 78.8547 75.0671 76.9387C76.9815 75.0228 79.5764 73.9441 82.2838 73.9388ZM144.589 99.8153H145.678C147.825 99.8153 149.884 100.669 151.403 102.188C152.921 103.708 153.774 105.769 153.774 107.917V122.511H147.297V107.917C147.3 104.994 146.349 102.149 144.589 99.8153ZM105.711 136.035C105.711 133.886 106.564 131.825 108.082 130.306C109.6 128.786 111.659 127.932 113.806 127.932H153.784V144.137H113.806C111.66 144.134 109.602 143.279 108.085 141.761C106.567 140.242 105.713 138.183 105.711 136.035ZM145.688 172.254H144.599C146.359 169.917 147.31 167.069 147.307 164.142V149.538H153.784V164.132C153.784 166.283 152.93 168.346 151.41 169.868C149.89 171.389 147.828 172.244 145.678 172.244L145.688 172.254Z" fill="white"/>
<path d="M113.117 133.324C112.492 133.324 111.887 133.541 111.405 133.938C110.923 134.335 110.593 134.886 110.471 135.499C110.35 136.112 110.444 136.748 110.739 137.299C111.034 137.85 111.51 138.281 112.087 138.52C112.664 138.759 113.305 138.79 113.903 138.609C114.5 138.427 115.016 138.044 115.363 137.524C115.709 137.004 115.865 136.38 115.803 135.759C115.742 135.137 115.467 134.556 115.025 134.114C114.517 133.61 113.832 133.327 113.117 133.324Z" fill="white"/>
<path d="M121.572 76.1893C124.661 76.1874 127.681 75.2685 130.249 73.549C132.817 71.8295 134.817 69.3865 135.998 66.529C137.178 63.6715 137.486 60.5278 136.881 57.4955C136.276 54.4632 134.787 51.6785 132.601 49.4934C130.415 47.3084 127.63 45.8212 124.6 45.2199C121.569 44.6186 118.428 44.9302 115.575 46.1153C112.721 47.3004 110.282 49.3058 108.568 51.8779C106.853 54.45 105.939 57.4733 105.941 60.5654C105.946 64.7109 107.595 68.6849 110.526 71.6144C113.457 74.5439 117.43 76.1893 121.572 76.1893ZM121.572 50.3328C123.594 50.3308 125.572 50.9292 127.255 52.0524C128.937 53.1756 130.25 54.773 131.025 56.6426C131.8 58.5122 132.004 60.5699 131.611 62.5555C131.217 64.5411 130.244 66.3653 128.815 67.7974C127.385 69.2294 125.564 70.205 123.58 70.6006C121.597 70.9963 119.54 70.7942 117.671 70.02C115.803 69.2458 114.205 67.9343 113.081 66.2513C111.957 64.5684 111.358 62.5896 111.358 60.5654C111.358 57.8533 112.433 55.2521 114.349 53.3334C116.264 51.4147 118.862 50.3354 121.572 50.3328Z" fill="white"/>
<path d="M95.1966 65.6267C95.9123 65.6267 96.5986 65.3421 97.1047 64.8356C97.6108 64.3292 97.8951 63.6422 97.8951 62.926V41.6906C97.8951 40.9743 97.6108 40.2874 97.1047 39.7809C96.5986 39.2744 95.9123 38.9899 95.1966 38.9899C94.4809 38.9899 93.7945 39.2744 93.2885 39.7809C92.7824 40.2874 92.4981 40.9743 92.4981 41.6906V62.926C92.4981 63.2806 92.5679 63.6318 92.7035 63.9595C92.8391 64.2871 93.0379 64.5849 93.2885 64.8356C93.5391 65.0864 93.8365 65.2854 94.1639 65.4211C94.4913 65.5568 94.8422 65.6267 95.1966 65.6267Z" fill="white"/>
<path d="M82.2339 56.2843C82.5882 56.2843 82.9391 56.2144 83.2665 56.0787C83.5939 55.943 83.8914 55.7441 84.142 55.4933C84.3925 55.2425 84.5913 54.9448 84.7269 54.6171C84.8625 54.2894 84.9323 53.9383 84.9323 53.5836V41.6906C84.9323 40.9743 84.648 40.2874 84.142 39.7809C83.6359 39.2744 82.9495 38.9899 82.2339 38.9899C81.5182 38.9899 80.8318 39.2744 80.3257 39.7809C79.8197 40.2874 79.5354 40.9743 79.5354 41.6906V53.5836C79.5354 53.9383 79.6052 54.2894 79.7408 54.6171C79.8764 54.9448 80.0752 55.2425 80.3257 55.4933C80.5763 55.7441 80.8738 55.943 81.2012 56.0787C81.5286 56.2144 81.8795 56.2843 82.2339 56.2843Z" fill="white"/>
<path d="M47.3834 138.725C47.8271 138.725 48.2638 138.615 48.655 138.406C49.0461 138.196 49.3796 137.893 49.626 137.524C49.8724 137.155 50.0239 136.731 50.0673 136.289C50.1107 135.847 50.0446 135.401 49.8748 134.991C49.7049 134.581 49.4367 134.219 49.0938 133.937C48.7508 133.655 48.3438 133.463 47.9087 133.376C47.4736 133.289 47.0238 133.311 46.5992 133.44C46.1746 133.569 45.7883 133.8 45.4745 134.114C45.2212 134.363 45.0201 134.661 44.8829 134.989C44.7456 135.317 44.6749 135.669 44.6749 136.025C44.6749 136.38 44.7456 136.732 44.8829 137.06C45.0201 137.388 45.2212 137.686 45.4745 137.935C45.9827 138.439 46.6682 138.722 47.3834 138.725Z" fill="white"/>
<path d="M159.131 190.598L167.046 196.52L174.972 185.837L183.187 197L191.303 191.078L183.187 180.016L196 175.945L193.062 166.722L180.249 170.893V157.51H170.274V170.893L157.462 166.332L154.333 175.555L167.346 180.016L159.131 190.598Z" fill="#0052D4"/>
<path d="M3.36811 133.624L8.92499 137.785L14.4919 130.283L20.2486 138.125L25.9554 133.964L20.2486 126.202L29.2536 123.341L27.1847 116.87L18.1898 119.79V110.398H11.1937V119.79L2.19877 116.59L0 123.061L9.13487 126.202L3.36811 133.624Z" fill="#0052D4"/>
<path d="M119.063 42.2807L129.177 49.8426L139.302 36.2092L149.796 50.4628L160.17 42.9009L149.796 28.7673L166.167 23.556L162.419 11.783L146.048 17.1043V0H133.305V17.1043L116.934 11.2829L112.937 23.0659L129.557 28.7673L119.063 42.2807Z" fill="#0052D4"/>
</svg>
