<svg width="289" height="254" viewBox="0 0 289 254" fill="none" xmlns="http://www.w3.org/2000/svg">
<path opacity="0.61" d="M272.489 81.2566C283.818 94.9296 292.595 110.729 287.501 126.64C283.918 137.915 272.229 144.315 261.221 148.599C241.666 156.213 221.04 160.797 201.535 168.552C182.03 176.306 163.126 187.852 151.978 205.668C142.48 220.846 138.157 240.779 122.645 249.727C113.638 254.873 102.45 255.024 92.6224 251.864C82.7949 248.704 74.1683 242.514 66.4925 235.573C37.9908 209.781 21.238 173.437 9.44903 136.822C0.44217 109.024 -5.77256 77.264 8.33818 51.6935C18.0156 34.1081 35.9192 22.5517 54.2832 14.4261C93.6392 -2.88552 138.062 -4.67672 178.678 9.41028C205.989 18.9704 229.717 36.7965 249.732 57.3513C256.197 63.9721 264.924 72.1579 272.489 81.2566Z" fill="#353334"/>
<path d="M78.6999 103.546C81.1718 104.64 83.4535 105.673 85.7052 106.656C91.8699 109.274 98.0446 111.862 104.209 114.471C105.054 114.695 105.846 115.084 106.541 115.614C106.851 115.924 107.09 116.299 107.24 116.711C107.391 117.124 107.449 117.564 107.412 118.002C107.15 118.349 106.803 118.623 106.406 118.799C106.008 118.974 105.573 119.045 105.14 119.005C103.465 118.521 101.834 117.893 100.266 117.129C93.4144 114.206 86.5492 111.277 79.6706 108.341C78.9801 108.05 78.2396 107.86 77.2688 107.539L70.2034 126.539C71.2042 127.03 72.205 127.482 73.1157 127.873C102.138 140.192 131.24 152.45 160.232 164.889C163.815 166.434 166.237 164.729 169.699 163.405C167.698 162.321 166.106 161.509 164.565 160.616C151.645 153.233 140.437 143.562 129.689 133.43C115.458 119.978 102.128 105.693 91.7398 88.9502C89.3421 85.0872 87.4358 80.9387 86.0655 76.6013C84.064 70.3817 87.7568 66.8807 94.0716 68.4957C102.548 70.6525 109.453 75.7787 116.289 80.9249C116.879 81.3663 116.769 82.7306 116.989 83.6635C115.888 83.6635 114.517 84.1551 113.717 83.6635C108.633 80.654 103.709 77.2935 98.6351 74.3141C96.675 73.2461 94.5564 72.501 92.3603 72.1071C89.8984 71.5955 88.8576 72.6288 89.6983 75.0163C91.0893 78.9186 92.4103 83.0416 94.8022 86.372C101.687 95.882 108.613 105.432 116.399 114.21C130.409 130.009 145.831 144.465 163.895 155.72C167.13 157.691 170.561 159.318 174.133 160.576C177.965 161.96 179.467 160.576 177.925 156.924C175.734 151.855 173.199 146.941 170.34 142.218C168.268 138.717 165.486 135.647 163.254 132.186C162.764 131.434 163.254 130.04 163.254 128.936C164.255 129.237 165.666 129.207 166.186 129.879C172.011 137.312 177.755 144.816 181.098 153.794C181.672 155.345 182.065 156.958 182.269 158.6C182.532 159.909 182.29 161.27 181.592 162.407C180.893 163.545 179.79 164.374 178.506 164.729L56.0427 209.721C53.3706 210.664 50.7286 211.667 48.0366 212.67C44.9742 213.763 42.032 213.603 39.6602 211.195C37.2884 208.788 36.8681 205.818 38.059 202.588C52.3498 163.873 66.6107 125.168 80.8415 86.4724C81.3419 85.1081 81.7822 83.3525 83.7437 84.0447C85.7052 84.7369 85.0047 86.3821 84.5043 87.7564C82.6129 92.9528 80.7014 98.1291 78.6999 103.546ZM156.759 168.42L156.889 167.688L68.8624 130.411C66.8008 135.998 65.0495 141.355 62.8578 146.521C61.717 149.19 62.3675 150.123 64.8594 151.166C82.2426 158.409 99.5558 165.812 116.899 173.175C118.29 173.767 120.282 174.279 119.391 176.355C118.5 178.432 116.789 177.298 115.388 176.787L114.847 176.566L63.3682 154.717C62.4275 154.316 61.4568 153.995 60.366 153.584C57.9641 160.134 55.6724 166.374 53.3606 172.694C54.3614 173.196 55.0719 173.557 55.7825 173.858C65.4298 177.95 75.3373 181.542 84.6544 186.287C92.4604 190.299 99.3156 190.209 107.392 186.859C123.564 180.137 140.227 174.55 156.709 168.42H156.759ZM89.5181 193.188L89.5882 192.466L51.8695 176.486L44.7841 195.817C50.4484 198.224 55.7925 200.522 61.1265 202.759C61.7567 203.037 62.4634 203.091 63.1281 202.909C71.9147 199.709 80.7114 196.439 89.5181 193.188ZM43.4831 199.549C42.8826 201.103 42.3823 202.357 41.9119 203.621C41.7287 204.07 41.5944 204.538 41.5116 205.016C41.1213 207.383 42.8426 209.781 44.9842 209.249C48.7071 208.326 52.2998 206.841 55.9926 205.588L55.8525 204.815L43.4831 199.549Z" fill="#C6C6C6"/>
<path d="M198.641 49.6464C200.16 50.1975 201.632 50.8683 203.044 51.6527C203.323 51.9876 203.51 52.3892 203.587 52.8182C203.664 53.2473 203.629 53.6891 203.485 54.1004C203.165 54.3956 202.778 54.6069 202.357 54.7154C201.936 54.8239 201.495 54.8263 201.073 54.7224C195.769 53.007 192.306 54.2308 190.065 59.357C188.738 62.6918 187.618 66.1057 186.712 69.5792C183.71 79.691 179.707 82.9613 169.179 84.0347C165.996 84.3557 162.794 84.5162 159.631 84.9676C157.35 85.2364 155.186 86.1265 153.374 87.5413C151.562 88.9562 150.172 90.8416 149.354 92.9929C147.752 96.835 146.802 100.948 145.22 104.79C143.579 108.803 141.558 112.665 139.586 116.527C139.155 117.397 138.452 118.101 137.585 118.533C137.175 118.695 136.733 118.76 136.294 118.724C135.855 118.687 135.43 118.55 135.053 118.323C134.838 117.951 134.726 117.529 134.726 117.099C134.726 116.669 134.838 116.247 135.053 115.875C139.716 111.481 141.057 105.542 142.729 99.8244C143.029 98.8213 143.329 97.8181 143.659 96.7548C147.422 85.078 152.596 81.0854 164.785 80.3932C166.917 80.2829 169.029 80.0221 171.16 79.8515C177.275 79.3499 180.778 75.7887 182.509 70.1409C183.71 66.2386 184.691 62.2561 186.192 58.4842C188.143 53.328 191.926 50.0978 198.641 49.6464Z" fill="#C6C6C6"/>
<path d="M201.003 99.373C205.126 100.376 209.559 101.289 213.893 102.543C214.683 102.774 215.094 104.339 215.674 105.282C214.673 105.583 213.512 106.395 212.752 106.104C199.822 101.169 188.183 104.519 177.145 111.591C169.356 116.744 162.459 123.138 156.729 130.521C156.266 131.257 155.68 131.909 154.998 132.447C154.676 132.606 154.321 132.688 153.962 132.688C153.603 132.688 153.249 132.606 152.926 132.447C152.446 131.889 152.18 131.178 152.176 130.441C152.176 130.05 152.536 129.558 152.826 129.187C162.554 117.019 173.652 106.606 188.854 101.771C192.617 100.627 196.62 100.226 201.003 99.373Z" fill="#C6C6C6"/>
<path d="M147.112 45.4933C146.425 54.6291 143.398 63.4328 138.325 71.0538C132.825 79.4492 125.989 86.8841 118.09 93.0631C117.71 93.3641 117.319 93.8556 116.919 93.8757C115.955 93.8822 114.992 93.8185 114.037 93.6851C114.227 92.6819 114.107 91.4882 114.667 90.9063C116.289 89.2511 118.24 87.8968 119.971 86.362C128.698 78.4571 136.194 69.6293 140.297 58.3638C143.275 50.6698 143.364 42.1532 140.547 34.3983C140.037 33.004 139.256 31.4491 141.258 30.7268C143.259 30.0045 143.85 31.6798 144.21 33.0842C145.271 37.2072 146.161 41.3603 147.112 45.4933Z" fill="#C6C6C6"/>
<path d="M186.882 138.817C185.171 138.843 183.491 138.359 182.054 137.428C180.617 136.497 179.487 135.16 178.808 133.586C178.129 132.011 177.93 130.27 178.237 128.583C178.545 126.896 179.344 125.337 180.534 124.105C181.724 122.873 183.252 122.022 184.925 121.659C186.597 121.297 188.339 121.44 189.931 122.069C191.523 122.699 192.893 123.787 193.868 125.197C194.842 126.607 195.379 128.274 195.409 129.989C195.442 131.134 195.246 132.274 194.833 133.342C194.42 134.41 193.798 135.383 193.003 136.206C192.208 137.029 191.257 137.684 190.206 138.132C189.155 138.581 188.025 138.814 186.882 138.817ZM186.422 134.805C187.026 134.868 187.637 134.809 188.218 134.632C188.799 134.455 189.339 134.163 189.805 133.773C190.272 133.383 190.656 132.903 190.934 132.362C191.212 131.82 191.379 131.229 191.426 130.621C191.495 129.995 191.437 129.362 191.257 128.758C191.077 128.154 190.778 127.593 190.378 127.108C189.978 126.622 189.484 126.222 188.926 125.931C188.369 125.64 187.759 125.465 187.132 125.415C186.517 125.371 185.899 125.449 185.314 125.644C184.729 125.839 184.188 126.148 183.722 126.552C182.781 127.37 182.202 128.529 182.113 129.774C182.025 131.019 182.433 132.248 183.248 133.192C184.064 134.135 185.22 134.715 186.462 134.805H186.422Z" fill="#C6C6C6"/>
<path d="M172.231 99.5937C172.245 100.738 172.025 101.872 171.584 102.928C171.144 103.983 170.492 104.937 169.67 105.73C168.847 106.523 167.872 107.139 166.803 107.54C165.734 107.941 164.594 108.118 163.454 108.06C161.75 108.028 160.094 107.49 158.695 106.514C157.296 105.539 156.217 104.169 155.594 102.578C154.972 100.987 154.834 99.2475 155.199 97.5784C155.563 95.9093 156.413 94.386 157.641 93.2013C158.869 92.0165 160.42 91.2235 162.098 90.9225C163.776 90.6216 165.505 90.8262 167.067 91.5105C168.629 92.1947 169.953 93.328 170.872 94.7668C171.792 96.2057 172.264 97.8854 172.231 99.5937ZM163.805 104.228C165.072 104.153 166.26 103.589 167.121 102.653C167.981 101.718 168.446 100.485 168.418 99.2125C168.341 97.9867 167.789 96.8395 166.881 96.0152C165.972 95.1908 164.779 94.7543 163.554 94.7986C162.947 94.7915 162.344 94.9078 161.783 95.1403C161.221 95.3729 160.712 95.717 160.287 96.1519C159.861 96.5867 159.528 97.1034 159.307 97.6708C159.086 98.2381 158.982 98.8445 159.001 99.4532C159.001 100.084 159.125 100.708 159.367 101.29C159.609 101.872 159.964 102.4 160.41 102.844C160.857 103.288 161.387 103.639 161.969 103.876C162.552 104.114 163.176 104.234 163.805 104.228Z" fill="#C6C6C6"/>
<path d="M127.647 90.475C128.345 90.8371 129.015 91.253 129.649 91.7189C132.181 93.966 134.763 96.1629 137.094 98.6106C137.705 99.2626 137.465 100.727 137.615 101.821C136.614 101.68 135.263 101.901 134.612 101.349C131.91 99.1623 129.348 96.7949 126.877 94.3271C126.332 93.5987 126.073 92.6961 126.146 91.7891C126.166 91.3878 127.097 90.9765 127.647 90.475Z" fill="#C6C6C6"/>
<path d="M156.119 118.794C155.709 119.256 155.348 120.018 154.828 120.148C154.475 120.241 154.106 120.256 153.746 120.192C153.387 120.128 153.046 119.986 152.746 119.777C150.806 117.883 148.981 115.873 147.282 113.758C147.113 113.395 147.041 112.995 147.073 112.596C147.104 112.197 147.239 111.813 147.462 111.481C147.778 111.245 148.15 111.095 148.541 111.046C148.932 110.997 149.33 111.05 149.694 111.2C151.796 113.207 153.697 115.393 155.699 117.55C155.902 117.941 156.044 118.36 156.119 118.794Z" fill="#C6C6C6"/>
<path d="M205.756 86.8335L209.269 89.4618L212.782 84.7268L216.425 89.6825L220.027 87.0542L216.425 82.1387L222.109 80.333L220.808 76.2301L215.124 78.0859V72.1372H210.7V78.0859L205.016 76.0596L203.635 80.1524L209.399 82.1387L205.756 86.8335Z" fill="#0052D4"/>
<path d="M157.59 56.5882L162.043 59.9288L166.497 53.9198L171.11 60.1996L175.674 56.8691L171.11 50.6395L178.316 48.3423L176.665 43.1559L169.459 45.5033V37.9696H163.855V45.5033L156.649 42.9352L154.898 48.1316L162.204 50.6395L157.59 56.5882Z" fill="#0052D4"/>
<path d="M118.73 60.2799L121.713 62.5169L124.705 58.4842L127.797 62.6975L130.86 60.4604L127.797 56.2873L132.631 54.7525L131.52 51.2715L126.696 52.8465V47.7905H122.934V52.8465L118.11 51.121L116.929 54.602L121.823 56.2873L118.73 60.2799Z" fill="#0052D4"/>
<path d="M157.67 145.729L160.653 147.966L163.635 143.933L166.737 148.147L169.789 145.91L166.737 141.736L171.561 140.192L170.46 136.721L165.626 138.286V133.24H161.873V138.286L157.04 136.57L155.859 140.051L160.763 141.736L157.67 145.729Z" fill="#0052D4"/>
</svg>
